<svg aria-hidden="true" style="position: absolute; width: 0; height: 0; overflow: hidden;" version="1.1" xmlns="http://www.w3.org/2000/svg" xmlns:xlink="http://www.w3.org/1999/xlink">
<defs>
<symbol id="icon-search" viewBox="0 0 32 32">
<path stroke-linejoin="miter" stroke-linecap="butt" stroke-miterlimit="4" stroke-width="1.92" d="M27.2 14.080c0 7.246-5.874 13.12-13.12 13.12s-13.12-5.874-13.12-13.12c0-7.246 5.874-13.12 13.12-13.12s13.12 5.874 13.12 13.12z"></path>
<path stroke-linejoin="miter" stroke-linecap="butt" stroke-miterlimit="4" stroke-width="1.92" d="M30.72 30.72l-7.68-7.68"></path>
</symbol>
<symbol id="icon-youtube" viewBox="0 0 32 32">
<path fill="#2a2a2a" style="fill: var(--color1, #2a2a2a)" d="M32 16c0 8.837-7.163 16-16 16s-16-7.163-16-16c0-8.837 7.163-16 16-16s16 7.163 16 16z"></path>
<path fill="#fff" style="fill: var(--color2, #fff)" d="M23.359 11.939c-0.177-0.669-0.697-1.195-1.358-1.374-1.198-0.325-6.001-0.325-6.001-0.325s-4.803 0-6.001 0.325c-0.661 0.179-1.182 0.705-1.358 1.374-0.321 1.212-0.321 3.741-0.321 3.741s0 2.529 0.321 3.741c0.177 0.669 0.697 1.195 1.358 1.374 1.198 0.325 6.001 0.325 6.001 0.325s4.803 0 6.001-0.325c0.661-0.179 1.181-0.705 1.358-1.374 0.321-1.212 0.321-3.741 0.321-3.741s0-2.529-0.321-3.741z"></path>
<path fill="#2a2a2a" style="fill: var(--color1, #2a2a2a)" d="M14.43 17.977l4.015-2.296-4.015-2.296v4.592z"></path>
</symbol>
<symbol id="icon-facebook" viewBox="0 0 32 32">
<path fill="#2a2a2a" style="fill: var(--color1, #2a2a2a)" d="M32 16c0 8.837-7.163 16-16 16s-16-7.163-16-16c0-8.837 7.163-16 16-16s16 7.163 16 16z"></path>
<path fill="#fff" style="fill: var(--color2, #fff)" d="M19.726 14.18l-0.431 2.78h-2.266v6.72h-3.039v-6.72h-2.469v-2.78h2.469v-2.119c0-2.41 1.452-3.742 3.674-3.742 1.064 0 2.177 0.188 2.177 0.188v2.367h-1.226c-1.208 0-1.585 0.741-1.585 1.502v1.804h2.697z"></path>
</symbol>
<symbol id="icon-instagram" viewBox="0 0 32 32">
<path fill="#2a2a2a" style="fill: var(--color1, #2a2a2a)" d="M32 16c0 8.837-7.163 16-16 16s-16-7.163-16-16c0-8.837 7.163-16 16-16s16 7.163 16 16z"></path>
<path fill="#fff" style="fill: var(--color2, #fff)" d="M16.001 8.32c-2.086 0-2.348 0.009-3.167 0.046-0.818 0.037-1.376 0.167-1.864 0.357-0.505 0.196-0.934 0.459-1.36 0.886s-0.69 0.855-0.886 1.36c-0.19 0.488-0.32 1.047-0.357 1.864-0.036 0.819-0.046 1.081-0.046 3.167s0.009 2.347 0.046 3.166c0.038 0.818 0.167 1.376 0.357 1.864 0.196 0.505 0.459 0.934 0.886 1.36s0.855 0.69 1.36 0.886c0.489 0.19 1.047 0.319 1.864 0.357 0.819 0.037 1.081 0.046 3.166 0.046s2.347-0.009 3.166-0.046c0.818-0.037 1.376-0.167 1.865-0.357 0.505-0.196 0.933-0.459 1.36-0.886s0.69-0.855 0.886-1.36c0.189-0.488 0.318-1.047 0.357-1.864 0.037-0.819 0.046-1.080 0.046-3.166s-0.010-2.348-0.046-3.167c-0.038-0.818-0.168-1.376-0.357-1.864-0.197-0.505-0.459-0.934-0.886-1.36s-0.854-0.69-1.36-0.886c-0.49-0.19-1.048-0.319-1.866-0.357-0.819-0.037-1.080-0.046-3.166-0.046h0.002zM15.312 9.704c0.204-0 0.433 0 0.689 0 2.051 0 2.294 0.007 3.103 0.044 0.749 0.034 1.155 0.159 1.426 0.264 0.358 0.139 0.614 0.306 0.883 0.574s0.435 0.525 0.575 0.883c0.105 0.27 0.23 0.677 0.264 1.426 0.037 0.81 0.045 1.053 0.045 3.102s-0.008 2.293-0.045 3.102c-0.034 0.749-0.159 1.155-0.264 1.426-0.139 0.358-0.306 0.614-0.575 0.882s-0.524 0.435-0.883 0.574c-0.27 0.106-0.677 0.23-1.426 0.265-0.81 0.037-1.053 0.045-3.103 0.045s-2.294-0.008-3.103-0.045c-0.749-0.035-1.155-0.16-1.426-0.265-0.358-0.139-0.614-0.306-0.883-0.574s-0.435-0.524-0.575-0.883c-0.105-0.27-0.23-0.677-0.264-1.426-0.037-0.81-0.044-1.053-0.044-3.104s0.007-2.293 0.044-3.102c0.034-0.749 0.159-1.155 0.264-1.426 0.139-0.358 0.306-0.614 0.575-0.883s0.525-0.435 0.883-0.575c0.271-0.106 0.677-0.23 1.426-0.265 0.708-0.032 0.983-0.042 2.414-0.043v0.002zM20.1 10.98c-0.182 0-0.36 0.054-0.512 0.155s-0.27 0.245-0.339 0.414c-0.070 0.168-0.088 0.354-0.052 0.533s0.123 0.343 0.252 0.472c0.129 0.129 0.293 0.217 0.472 0.252s0.364 0.017 0.533-0.053c0.168-0.070 0.312-0.188 0.414-0.34s0.155-0.33 0.155-0.512c0-0.509-0.413-0.922-0.922-0.922v0zM16.001 12.056c-2.178 0-3.944 1.766-3.944 3.944s1.766 3.943 3.944 3.943c2.178 0 3.944-1.765 3.944-3.943s-1.766-3.944-3.944-3.944h0zM16.001 13.44c1.414 0 2.56 1.146 2.56 2.56s-1.146 2.56-2.56 2.56c-1.414 0-2.56-1.146-2.56-2.56s1.146-2.56 2.56-2.56z"></path>
</symbol>
<symbol id="icon-buy" viewBox="0 0 32 32">
<path fill="none" stroke="#fff" style="stroke: var(--color2, #fff)" stroke-linejoin="miter" stroke-linecap="butt" stroke-miterlimit="4" stroke-width="1.5" d="M27.25 25.5c0 0.966-0.784 1.75-1.75 1.75s-1.75-0.784-1.75-1.75c0-0.966 0.784-1.75 1.75-1.75s1.75 0.784 1.75 1.75z"></path>
<path fill="none" stroke="#fff" style="stroke: var(--color2, #fff)" stroke-linejoin="miter" stroke-linecap="butt" stroke-miterlimit="4" stroke-width="1.5" d="M17.25 25.5c0 0.966-0.784 1.75-1.75 1.75s-1.75-0.784-1.75-1.75c0-0.966 0.784-1.75 1.75-1.75s1.75 0.784 1.75 1.75z"></path>
<path fill="none" stroke="#fff" style="stroke: var(--color2, #fff)" stroke-linejoin="miter" stroke-linecap="butt" stroke-miterlimit="4" stroke-width="1.5" d="M28 21.5h-15l-2.057-12M4 4h6l0.943 5.5M10.943 9.5h17.057l-3 9h-12.5"></path>
</symbol>
<symbol id="icon-favorite-product" viewBox="0 0 32 32">
<path fill="none" stroke="#fff" style="stroke: var(--color2, #fff)" stroke-linejoin="miter" stroke-linecap="butt" stroke-miterlimit="4" stroke-width="1.5" d="M25.442 16.117v0l-0.005 0.006-9.437 10.74-9.442-10.746c-2.403-2.676-2.411-6.926-0.023-9.612 1.22-1.123 2.593-1.756 4.131-1.756 1.537 0 2.898 0.63 4.109 1.978l1.225 1.364 1.225-1.364c2.361-2.629 6.048-2.637 8.417-0.025 1.013 1.364 1.608 2.932 1.608 4.719 0 1.793-0.597 3.347-1.808 4.695z"></path>
</symbol>
<symbol id="icon-personal-area" viewBox="0 0 32 32">
<path fill="none" stroke="#fff" style="stroke: var(--color2, #fff)" stroke-linejoin="miter" stroke-linecap="butt" stroke-miterlimit="4" stroke-width="1.5" d="M27.213 27.25h-22.425c0.217-2.148 1.367-3.921 3.165-5.212 2.018-1.45 4.856-2.288 8.048-2.288s6.029 0.838 8.048 2.288c1.798 1.291 2.948 3.063 3.165 5.212z"></path>
<path fill="none" stroke="#fff" style="stroke: var(--color2, #fff)" stroke-linejoin="miter" stroke-linecap="butt" stroke-miterlimit="4" stroke-width="1.5" d="M21.25 10c0 2.899-2.351 5.25-5.25 5.25s-5.25-2.351-5.25-5.25c0-2.899 2.351-5.25 5.25-5.25s5.25 2.351 5.25 5.25z"></path>
</symbol>
<symbol id="icon-compare-product" viewBox="0 0 32 32">
<path fill="none" stroke="#fff" style="stroke: var(--color2, #fff)" stroke-linejoin="miter" stroke-linecap="butt" stroke-miterlimit="4" stroke-width="1.5" d="M10 27.25h12"></path>
<path fill="none" stroke="#fff" style="stroke: var(--color2, #fff)" stroke-linejoin="miter" stroke-linecap="butt" stroke-miterlimit="4" stroke-width="1.5" d="M27.25 19c0 0.709-0.339 1.241-0.916 1.626-0.599 0.399-1.445 0.624-2.334 0.624s-1.735-0.224-2.334-0.624c-0.577-0.385-0.916-0.917-0.916-1.626 0-1.793 0.913-3.898 1.901-5.628 0.485-0.849 0.972-1.579 1.337-2.096 0.004-0.006 0.008-0.012 0.012-0.017 0.004 0.006 0.008 0.011 0.012 0.017 0.365 0.517 0.851 1.246 1.337 2.096 0.989 1.73 1.901 3.835 1.901 5.628z"></path>
<path fill="none" stroke="#fff" style="stroke: var(--color2, #fff)" stroke-linejoin="miter" stroke-linecap="butt" stroke-miterlimit="4" stroke-width="1.5" d="M11.25 19c0 0.709-0.339 1.241-0.916 1.626-0.599 0.399-1.445 0.624-2.334 0.624s-1.735-0.224-2.334-0.624c-0.577-0.385-0.916-0.917-0.916-1.626 0-1.793 0.913-3.898 1.901-5.628 0.485-0.849 0.972-1.579 1.337-2.096 0.004-0.006 0.008-0.012 0.012-0.017 0.004 0.006 0.008 0.011 0.012 0.017 0.365 0.517 0.851 1.246 1.337 2.096 0.989 1.73 1.901 3.835 1.901 5.628z"></path>
<path fill="none" stroke="#fff" style="stroke: var(--color2, #fff)" stroke-linejoin="miter" stroke-linecap="butt" stroke-miterlimit="4" stroke-width="1.5" d="M16.25 9v18"></path>
<path fill="none" stroke="#fff" style="stroke: var(--color2, #fff)" stroke-linejoin="miter" stroke-linecap="butt" stroke-miterlimit="4" stroke-width="1.5" d="M18.5 6.75h5.5"></path>
<path fill="none" stroke="#fff" style="stroke: var(--color2, #fff)" stroke-linejoin="miter" stroke-linecap="butt" stroke-miterlimit="4" stroke-width="1.5" d="M8 6.75h5.5"></path>
<path fill="none" stroke="#fff" style="stroke: var(--color2, #fff)" stroke-linejoin="miter" stroke-linecap="butt" stroke-miterlimit="4" stroke-width="1.5" d="M18.25 7c0 1.243-1.007 2.25-2.25 2.25s-2.25-1.007-2.25-2.25c0-1.243 1.007-2.25 2.25-2.25s2.25 1.007 2.25 2.25z"></path>
</symbol>
<symbol id="icon-catalog" viewBox="0 0 32 32">
<path d="M8 8h3.333v3.333h-3.333v-3.333z"></path>
<path d="M20.667 8h3.333v3.333h-3.333v-3.333z"></path>
<path d="M8 20.667h3.333v3.333h-3.333v-3.333z"></path>
<path d="M20.667 20.667h3.333v3.333h-3.333v-3.333z"></path>
</symbol>
<symbol id="icon-search1" viewBox="0 0 32 32">
<path d="M31.008 27.231l-7.58-6.447c-0.784-0.705-1.622-1.029-2.299-0.998 1.789-2.096 2.87-4.815 2.87-7.787 0-6.627-5.373-12-12-12s-12 5.373-12 12 5.373 12 12 12c2.972 0 5.691-1.081 7.787-2.87-0.031 0.677 0.293 1.515 0.998 2.299l6.447 7.58c1.104 1.226 2.907 1.33 4.007 0.23s0.997-2.903-0.23-4.007zM12 20c-4.418 0-8-3.582-8-8s3.582-8 8-8 8 3.582 8 8-3.582 8-8 8z"></path>
</symbol>
<symbol id="icon-Vector-1-1" viewBox="0 0 55 32">
<path fill="none" stroke="#fff" style="stroke: var(--color1, #fff)" stroke-linejoin="miter" stroke-linecap="butt" stroke-miterlimit="4" stroke-width="4.5714" d="M4.571 4.571l22.857 22.857 22.857-22.857"></path>
</symbol>
</defs>
</svg>
